<?xml version="1.0" standalone="no"?>
<!DOCTYPE svg PUBLIC "-//W3C//DTD SVG 20010904//EN"
 "http://www.w3.org/TR/2001/REC-SVG-20010904/DTD/svg10.dtd">
<svg version="1.0" xmlns="http://www.w3.org/2000/svg"
 width="500.000000pt" height="500.000000pt" viewBox="0 0 500.000000 500.000000"
 preserveAspectRatio="xMidYMid meet">

<g transform="translate(0.000000,500.000000) scale(0.100000,-0.100000)"
fill="#000000" stroke="none">
<path d="M2345 4770 c-10 -25 -85 -182 -166 -348 l-149 -304 23 -19 c12 -10
25 -18 29 -19 11 0 136 -155 138 -170 7 -44 -1 -70 -19 -70 -10 0 -97 18 -192
41 -141 33 -185 40 -243 36 -89 -5 -143 -20 -162 -44 -58 -75 -85 -193 -70
-298 9 -54 24 -63 73 -46 19 7 36 11 39 9 2 -3 -8 -27 -23 -54 l-26 -50 26
-28 c31 -34 32 -38 12 -75 -8 -16 -12 -31 -9 -34 8 -8 -100 26 -154 48 -52 21
-92 16 -177 -23 -65 -31 -144 -40 -157 -19 -18 28 -8 66 22 87 24 17 30 28 30
60 0 32 -6 43 -30 60 l-30 21 25 33 c17 23 25 46 25 74 0 35 -5 45 -36 68 -68
52 -166 32 -201 -41 -15 -31 -15 -37 1 -79 10 -25 28 -54 42 -65 l24 -19 -30
-12 c-118 -49 -211 -318 -169 -486 6 -25 8 -48 4 -52 -4 -4 -10 -1 -12 6 -8
22 -20 13 -26 -21 -6 -40 2 -89 14 -81 5 3 6 -2 3 -10 -5 -14 -10 -13 -36 6
-17 12 -44 41 -61 65 -17 23 -39 45 -49 49 -12 3 -18 15 -18 35 0 40 -37 115
-69 140 -14 11 -68 48 -118 82 -51 34 -124 86 -163 114 -38 29 -70 49 -70 44
0 -5 22 -42 48 -82 62 -96 83 -156 107 -301 7 -43 49 -98 73 -98 10 1 33 7 54
14 l36 13 22 -39 c13 -23 29 -38 40 -38 12 0 21 -10 25 -29 9 -40 144 -270
196 -334 76 -92 201 -221 261 -269 74 -60 116 -72 253 -72 91 0 131 6 234 33
223 58 298 109 533 363 133 145 230 286 279 405 19 45 37 83 41 83 3 0 11 -15
17 -33 6 -18 39 -80 74 -138 157 -265 430 -546 592 -611 143 -58 368 -101 500
-96 166 6 220 41 480 302 83 84 112 122 169 223 83 146 162 247 185 237 42
-17 62 -15 95 10 28 21 40 43 65 118 17 51 35 115 41 143 14 63 58 174 79 199
34 41 -107 -59 -169 -119 -36 -34 -95 -81 -131 -104 -66 -41 -79 -59 -94 -126
-3 -16 -17 -41 -30 -55 -25 -27 -67 -85 -116 -162 -17 -27 -33 -48 -36 -48 -2
0 -2 33 2 74 4 40 4 88 0 106 l-7 32 -28 -43 c-31 -46 -57 -66 -70 -53 -4 5
-3 41 2 79 16 121 -10 293 -61 397 -24 51 -85 116 -124 133 l-27 11 26 14 c27
15 47 46 57 90 8 34 -24 87 -61 100 -15 6 -35 15 -44 20 -40 23 -103 -5 -124
-55 -19 -45 0 -133 30 -145 19 -8 19 -9 -5 -9 -34 -1 -59 -30 -59 -69 0 -23 9
-38 36 -60 28 -23 35 -35 32 -58 -3 -27 -6 -29 -60 -32 -42 -2 -68 2 -95 16
-21 11 -63 27 -94 37 -54 17 -56 17 -100 -5 -45 -24 -130 -50 -162 -50 -11 0
-24 13 -33 36 -15 35 -14 37 10 63 32 34 32 43 0 98 -14 25 -23 47 -19 51 3 3
22 -2 41 -13 33 -17 36 -18 52 -1 35 35 7 198 -49 288 -37 57 -62 74 -141 94
-74 19 -98 17 -318 -35 -252 -60 -230 -58 -230 -21 0 41 56 125 138 210 57 58
62 67 51 85 -7 11 -85 164 -174 340 l-161 321 -19 -46z m319 -647 c-20 -15
-110 -18 -118 -4 -3 5 -16 11 -28 14 -22 6 -22 5 -4 -8 11 -8 15 -15 9 -15 -6
0 -16 6 -22 14 -10 12 -3 20 33 46 26 17 46 33 46 36 0 3 -25 31 -55 63 -40
43 -60 74 -74 117 -22 66 -68 174 -75 174 -4 0 -65 -111 -137 -250 -16 -30
-29 -60 -29 -66 0 -6 -10 -19 -22 -28 -20 -13 -21 -17 -8 -25 8 -5 30 -21 49
-35 l33 -25 -61 -7 c-86 -9 -68 -28 20 -20 l69 6 -11 -27 c-5 -14 -10 -41 -11
-59 -1 -20 -5 -31 -12 -28 -6 3 -3 -1 7 -9 25 -21 21 -37 -10 -37 -21 1 -37
12 -63 46 -19 25 -33 50 -32 57 2 7 0 9 -3 5 -4 -4 -27 9 -51 28 l-43 36 108
211 c59 117 129 259 155 317 l48 105 155 -310 c141 -284 153 -311 137 -322z
m-260 312 c40 -105 52 -126 97 -177 47 -54 46 -62 -22 -100 -22 -12 -40 -26
-40 -32 -1 -6 -2 -38 -3 -71 l-1 -60 -50 -1 c-27 -1 -59 -3 -70 -5 -22 -4 -23
10 -14 110 4 44 4 44 -45 70 -28 14 -51 31 -53 37 -2 7 10 22 27 34 16 12 30
30 30 41 0 18 109 234 115 227 2 -2 15 -34 29 -73z m106 -370 c0 -2 -9 -3 -19
-2 -11 0 -18 5 -15 9 4 6 34 0 34 -7z m-6 -49 c-3 -9 -16 -16 -28 -15 -14 0
-16 2 -6 6 8 3 19 12 23 20 11 19 19 11 11 -11z m30 2 c-6 -20 -5 -21 10 -9 9
7 16 9 16 3 0 -5 -7 -15 -15 -22 -12 -10 -15 -10 -15 1 -1 9 -5 8 -15 -5 -20
-27 -19 -11 2 25 21 35 27 37 17 7z m-25 -71 c10 -3 8 -5 -6 -6 -16 -1 -23 5
-23 17 0 14 -2 15 -10 2 -11 -17 -13 -9 -3 16 6 16 7 16 16 -4 5 -11 17 -23
26 -25z m-85 14 c17 -19 17 -20 -3 -30 -29 -16 -96 -14 -110 3 -10 12 -7 18
16 30 39 21 77 20 97 -3z m-120 -46 c11 -8 41 -15 66 -15 25 0 55 7 66 15 37
28 54 19 54 -29 0 -48 -18 -71 -49 -61 -35 11 -33 -14 5 -58 l37 -43 81 14
c45 8 153 15 241 15 135 2 165 -1 192 -15 71 -39 103 -139 68 -209 -23 -46
-78 -128 -87 -129 -3 0 5 39 18 87 28 102 30 143 9 184 -18 33 -69 69 -100 69
-13 0 -7 -7 22 -26 49 -32 73 -70 73 -116 0 -19 -15 -81 -34 -139 -18 -57 -46
-150 -62 -207 -23 -80 -32 -101 -44 -96 -28 10 -298 74 -317 74 -36 0 -43 13
-31 58 l10 42 57 -6 c64 -7 205 -40 234 -55 21 -12 37 2 37 33 0 9 18 72 40
140 46 138 53 208 23 240 -35 39 -68 48 -172 48 -88 0 -209 -16 -199 -26 2 -2
53 1 113 5 147 12 200 3 238 -39 37 -42 34 -61 -34 -236 l-52 -131 -67 18
c-37 9 -104 21 -148 24 -73 7 -81 10 -86 31 -11 40 -71 78 -127 78 -54 0 -88
-23 -109 -74 -11 -25 -17 -28 -83 -34 -64 -7 -109 -14 -184 -31 -16 -4 -23 -1
-23 9 0 8 -5 18 -10 21 -7 4 -9 -2 -4 -19 12 -50 -5 -25 -56 82 -66 137 -76
202 -36 249 38 45 82 57 195 50 120 -7 151 -17 151 -53 0 -14 10 -44 22 -65
17 -30 19 -41 9 -52 -10 -13 -18 -12 -59 3 -26 10 -66 21 -89 25 -56 9 -62 22
-21 40 33 14 33 14 6 15 -29 0 -78 -19 -78 -30 0 -4 9 -15 19 -24 11 -10 17
-24 14 -32 -4 -12 0 -12 21 -4 36 13 92 0 160 -38 56 -32 81 -33 43 -1 l-22
19 24 19 c25 19 71 31 126 31 22 0 39 -9 58 -31 33 -38 30 -45 -9 -24 -36 18
-61 19 -94 1 -23 -13 -21 -14 21 -9 53 6 89 -9 89 -37 0 -26 2 -26 42 14 50
50 147 71 212 46 38 -14 34 11 -10 59 -35 39 -64 53 -134 65 -33 5 -34 5 -16
-9 11 -8 30 -15 41 -15 41 0 85 -21 85 -41 0 -14 -7 -19 -29 -19 -16 0 -42 -5
-58 -11 -15 -6 -49 -14 -75 -18 l-46 -8 -4 36 c-3 20 1 50 9 68 7 18 13 45 12
60 -1 22 -4 17 -17 -24 -10 -29 -22 -58 -29 -64 -7 -7 -47 -15 -88 -18 -76 -7
-77 -6 -97 22 -25 34 -26 109 -3 141 8 11 22 31 31 43 15 22 15 23 -10 33 -16
6 -26 17 -26 30 0 11 2 20 4 20 2 0 28 -5 57 -10 57 -11 149 -4 149 11 0 5
-27 6 -60 2 -57 -5 -150 11 -150 26 0 9 22 31 30 31 3 0 14 -7 24 -15z m807
-53 c40 -26 79 -77 100 -132 22 -58 24 -98 7 -136 -11 -24 -16 -26 -57 -20
-29 4 -49 2 -59 -6 -13 -12 -14 -10 -2 9 30 47 -28 150 -105 184 -49 22 -176
25 -368 8 -113 -11 -130 -10 -144 3 -19 20 -16 21 117 43 52 9 133 27 180 42
152 45 198 52 255 36 28 -8 62 -22 76 -31z m-1157 -1 c85 -22 189 -45 230 -52
42 -7 76 -16 76 -20 0 -3 -7 -12 -15 -19 -13 -10 -49 -10 -188 1 -215 17 -247
16 -294 -8 -55 -29 -83 -75 -83 -138 l0 -51 -51 -13 c-66 -17 -74 -9 -74 77 1
72 27 146 68 191 28 30 113 71 150 71 15 0 97 -18 181 -39z m-135 -120 c-25
-16 -53 -41 -63 -55 -25 -40 -31 -113 -12 -166 20 -57 20 -66 -1 -49 -39 33
-56 134 -32 196 20 54 83 102 134 102 14 1 6 -8 -26 -28z m295 -1 c49 -5 94
-14 100 -21 8 -8 1 -10 -29 -5 -22 3 -85 9 -141 12 -88 6 -106 4 -147 -14 -59
-26 -82 -67 -74 -132 5 -38 96 -302 109 -316 2 -2 36 7 75 21 59 20 191 45
236 45 7 0 17 -20 23 -44 l10 -45 -70 -12 c-39 -6 -117 -24 -174 -40 -56 -16
-108 -29 -115 -29 -7 0 -23 30 -36 68 -13 37 -45 117 -72 177 -56 129 -65 167
-50 222 31 115 108 139 355 113z m-1030 -46 c19 -18 20 -28 6 -55 -12 -21 -1
-26 18 -7 9 9 15 9 23 1 23 -23 -36 -95 -93 -116 -22 -8 -51 33 -42 58 6 14 3
16 -14 10 -20 -6 -22 -3 -22 29 0 71 81 124 124 80z m2760 -16 c15 -13 29 -38
32 -57 6 -31 5 -33 -14 -27 -20 7 -21 4 -16 -23 6 -26 3 -31 -19 -36 -41 -11
-61 -2 -78 33 -14 26 -18 29 -23 16 -11 -29 -29 0 -21 35 8 37 57 81 90 81 13
0 35 -10 49 -22z m-2726 -194 c26 -18 29 -46 7 -64 -12 -10 -19 -10 -28 -1 -9
9 -9 14 3 21 18 11 8 23 -13 14 -13 -4 -14 -10 -7 -24 14 -26 13 -30 -8 -30
-24 0 -94 -74 -123 -130 -22 -42 -24 -56 -24 -200 1 -183 19 -279 88 -465 24
-66 55 -156 67 -200 13 -44 34 -104 47 -134 13 -30 21 -56 18 -59 -2 -3 -20 7
-40 22 -43 33 -76 96 -104 201 -12 44 -51 163 -85 265 -78 228 -90 293 -84
442 9 188 66 289 191 337 64 25 67 25 95 5z m2689 5 c43 -16 111 -76 138 -123
49 -84 60 -138 60 -311 0 -173 3 -157 -82 -434 -19 -62 -44 -149 -55 -193 -11
-44 -26 -95 -33 -112 -13 -31 -102 -122 -111 -114 -2 3 5 24 17 47 11 23 27
72 36 109 8 37 39 139 69 227 68 203 83 266 90 390 10 169 -26 290 -117 387
-38 40 -51 48 -82 48 -52 0 -67 30 -33 65 27 27 58 31 103 14z m-1437 -65 c0
-4 -13 -22 -30 -41 -57 -65 -26 -143 57 -143 27 0 34 -4 31 -17 -2 -10 -16
-22 -31 -27 -24 -9 -31 -6 -61 23 -45 43 -60 81 -51 127 7 39 44 84 70 84 8 0
15 -3 15 -6z m730 -29 c11 -20 11 -28 -2 -47 -18 -27 -80 -89 -85 -84 -8 8 54
156 65 156 5 0 15 -11 22 -25z m-674 0 c17 -13 15 -14 -31 -14 -46 0 -48 1
-31 14 11 8 25 15 31 15 6 0 20 -7 31 -15z m-688 -45 c12 -24 22 -53 22 -64 0
-17 -5 -15 -35 14 -37 36 -52 70 -40 90 12 19 29 6 53 -40z m1395 -56 c-4 -11
-9 -12 -19 -3 -19 15 -18 20 3 12 12 -5 14 -3 8 7 -5 8 -4 11 3 6 6 -4 9 -13
5 -22z m24 -3 c0 -11 -5 -18 -9 -15 -4 3 -5 11 -1 19 7 21 12 19 10 -4z
m-1467 -14 c0 -4 5 -5 12 -1 7 4 8 3 4 -5 -4 -6 0 -14 8 -17 9 -3 16 -11 16
-17 0 -5 -8 -3 -18 6 -13 12 -22 13 -37 6 -18 -10 -19 -9 -3 4 17 13 16 15 -5
25 l-22 10 23 -1 c12 -1 22 -5 22 -10z m1406 -3 c-5 -12 -1 -14 17 -10 12 3
16 3 9 0 -6 -3 -9 -10 -6 -16 4 -6 -2 -6 -14 1 -26 14 -35 14 -27 1 4 -6 -1
-7 -11 -3 -16 6 -15 8 4 16 12 6 22 14 22 19 0 4 3 8 6 8 3 0 3 -7 0 -16z
m317 9 c-7 -2 -21 -2 -30 0 -10 3 -4 5 12 5 17 0 24 -2 18 -5z m-1755 -18 c3
-3 -4 -4 -16 -2 -12 2 -24 6 -28 10 -4 3 4 4 16 2 12 -2 25 -7 28 -10z m2932
-35 c-11 -28 -20 -62 -20 -76 0 -14 -4 -34 -10 -44 -9 -17 -12 -17 -45 -2
l-35 16 33 36 c18 19 45 54 60 78 15 23 29 42 32 42 3 0 -4 -23 -15 -50z
m-4152 -79 c36 -43 40 -51 23 -51 -10 0 -26 -3 -34 -6 -11 -4 -19 6 -27 33 -7
21 -26 63 -42 93 l-30 55 34 -36 c18 -20 52 -59 76 -88z m620 49 c17 -26 22
-44 18 -68 -2 -18 -1 -30 4 -27 26 16 -27 -59 -74 -103 -62 -59 -66 -57 -66
42 0 75 15 163 32 183 19 24 60 11 86 -27z m2834 -35 c9 -38 17 -103 17 -143
l1 -73 -50 42 c-97 82 -115 149 -59 214 49 55 70 46 91 -40z m-2119 -1 c-3 -8
-10 -11 -15 -8 -6 4 -6 9 2 14 9 6 7 11 -9 19 -11 7 -21 16 -21 21 0 6 11 0
24 -11 14 -12 22 -28 19 -35z m1259 34 c-14 -14 -44 -20 -36 -7 3 5 10 7 15 4
5 -4 12 1 15 10 4 9 9 13 12 10 3 -3 0 -11 -6 -17z m-1441 -15 c-12 -20 -14
-14 -5 12 4 9 9 14 11 11 3 -2 0 -13 -6 -23z m563 -10 c-4 -16 -16 -45 -26
-67 -12 -22 -16 -41 -10 -45 5 -3 15 -24 22 -46 7 -22 21 -47 32 -56 18 -14
19 -18 7 -37 -8 -12 -17 -22 -22 -22 -4 0 -49 26 -100 57 -96 59 -190 139
-184 156 3 11 41 24 182 62 112 30 107 30 99 -2z m606 -13 c63 -17 119 -35
125 -41 6 -6 -5 -23 -35 -50 -45 -40 -208 -155 -234 -165 -8 -3 -23 9 -36 31
-22 36 -22 36 -3 58 47 52 56 80 46 140 -12 69 -19 68 137 27z m728 23 c-10
-2 -26 -2 -35 0 -10 3 -2 5 17 5 19 0 27 -2 18 -5z m-1893 -31 c10 10 33 -15
28 -29 -3 -7 0 -13 6 -13 6 0 11 5 11 11 0 5 5 7 11 3 8 -5 6 -10 -5 -16 -18
-10 -36 -3 -36 15 0 7 -10 17 -22 22 -12 6 -24 17 -26 25 -3 9 2 7 11 -5 8
-11 18 -17 22 -13z m832 -48 c21 -45 41 -73 48 -70 7 2 27 -21 45 -52 159
-269 368 -531 521 -654 43 -34 76 -64 74 -67 -3 -2 -29 8 -58 23 -140 68 -539
550 -623 752 -18 43 -33 40 -50 -9 -23 -65 -103 -203 -172 -295 -132 -175
-391 -444 -392 -405 0 4 -4 4 -8 -2 -23 -32 -167 -113 -179 -102 -2 3 17 20
43 38 181 124 351 326 499 592 27 48 52 87 57 87 8 0 2 -35 -14 -79 -5 -13 -7
-26 -4 -28 6 -7 91 156 120 232 39 103 45 115 51 115 3 0 22 -34 42 -76z m785
58 c-7 -2 -10 -7 -7 -12 6 -10 -43 -6 -53 5 -4 4 3 4 16 1 15 -5 24 -3 28 8 3
9 11 13 17 9 8 -5 7 -8 -1 -11z m351 11 c3 -5 -5 -8 -18 -8 -13 0 -21 3 -18 8
2 4 10 7 18 7 8 0 16 -3 18 -7z m-208 -19 c-13 -13 -20 -14 -38 -5 -12 6 -15
10 -6 7 9 -2 22 0 30 5 23 14 32 10 14 -7z m-2085 3 c0 -2 -10 -12 -22 -23
l-23 -19 19 23 c18 21 26 27 26 19z m180 -7 c-13 -9 -13 -10 0 -10 13 0 13 -1
0 -10 -8 -5 -19 -10 -25 -10 -5 0 -3 5 5 10 8 5 11 10 7 10 -5 0 -5 5 -2 10 3
6 12 10 18 10 7 0 6 -4 -3 -10z m60 0 c-8 -5 -22 -10 -30 -10 -13 0 -13 1 0
10 8 5 22 10 30 10 13 0 13 -1 0 -10z m1629 -4 c9 -11 9 -16 -1 -22 -7 -4 -10
-4 -6 1 4 4 3 14 -3 22 -6 7 -9 13 -6 13 2 0 10 -6 16 -14z m262 5 c-7 -5 -10
-14 -7 -20 10 -16 -9 -14 -23 3 -13 15 -2 24 29 25 12 1 13 -1 1 -8z m114 -9
c-3 -3 -11 0 -18 7 -9 10 -8 11 6 5 10 -3 15 -9 12 -12z m-1837 -17 c-3 -3 -9
2 -12 12 -6 14 -5 15 5 6 7 -7 10 -15 7 -18z m-403 -4 c-3 -6 -11 -11 -16 -11
-5 0 -4 6 3 14 14 16 24 13 13 -3z m545 -2 c0 -6 -4 -7 -10 -4 -5 3 -10 11
-10 16 0 6 5 7 10 4 6 -3 10 -11 10 -16z m1131 3 c-11 -4 -11 -6 0 -13 11 -7
11 -9 1 -9 -7 0 -11 -4 -8 -9 3 -5 -5 -8 -17 -8 l-23 0 25 28 c14 16 27 26 30
22 4 -3 0 -8 -8 -11z m-1166 -2 c3 -5 1 -10 -4 -10 -6 0 -11 5 -11 10 0 6 2
10 4 10 3 0 8 -4 11 -10z m1712 4 c-3 -3 -12 -4 -19 -1 -8 3 -5 6 6 6 11 1 17
-2 13 -5z m146 -14 c16 -19 16 -20 -3 -17 -11 2 -26 10 -33 17 -9 11 -7 11 7
0 18 -14 19 -13 13 3 -8 22 -5 22 16 -3z m-173 0 c11 -8 7 -9 -15 -4 -37 8
-45 14 -19 14 10 0 26 -5 34 -10z m-2106 -8 c3 -5 0 -9 -7 -9 -7 0 -21 -4 -32
-8 l-20 -8 20 16 c23 19 32 21 39 9z m1776 -2 c0 -5 -2 -10 -4 -10 -3 0 -8 5
-11 10 -3 6 -1 10 4 10 6 0 11 -4 11 -10z m-1915 -7 c-11 -3 -27 -10 -35 -17
-13 -10 -13 -9 -1 7 7 9 23 16 35 16 20 -1 20 -2 1 -6z m458 -19 c9 -4 17 -12
17 -19 0 -7 6 -18 14 -24 11 -9 17 -8 29 4 14 14 15 12 12 -12 -2 -16 -4 -32
-4 -38 -1 -12 -61 54 -61 66 0 5 -6 9 -14 9 -7 0 -20 7 -27 17 -12 14 -12 15
1 10 8 -4 23 -10 33 -13z m1917 1 c-14 -17 -36 -20 -44 -6 -4 5 2 7 13 4 10
-3 22 0 25 6 4 6 10 11 13 11 3 0 0 -7 -7 -15z m894 5 c30 -11 34 -40 10 -65
-12 -12 -19 -13 -30 -4 -7 6 -13 14 -12 17 2 23 -4 33 -17 28 -19 -7 -19 -1 1
18 18 19 16 19 48 6z m-3204 -10 c0 -5 -5 -10 -11 -10 -5 0 -7 5 -4 10 3 6 8
10 11 10 2 0 4 -4 4 -10z m-785 -10 c4 -6 -13 -19 -37 -30 -47 -21 -62 -12
-32 21 18 20 59 26 69 9z m702 -5 c0 -8 -4 -12 -9 -9 -5 3 -6 10 -3 15 9 13
12 11 12 -6z m669 -2 c0 -11 6 -18 16 -17 9 1 19 -4 22 -12 3 -9 0 -11 -11 -7
-10 4 -14 2 -10 -4 3 -5 -3 -9 -15 -8 -12 1 -24 8 -26 16 -3 12 -2 12 6 0 6
-8 12 -9 16 -3 3 5 -1 15 -10 22 -12 11 -12 15 -2 21 7 5 14 9 14 9 1 0 1 -8
0 -17z m1199 7 c3 -6 -1 -7 -9 -4 -18 7 -21 14 -7 14 6 0 13 -4 16 -10z m610
-22 c11 -12 14 -18 8 -14 -7 4 -13 2 -13 -4 0 -6 -5 -8 -11 -4 -8 4 -7 9 2 14
9 6 2 13 -22 24 -22 10 -25 14 -9 10 14 -3 34 -15 45 -26z m20 12 c10 -11 16
-20 13 -20 -3 0 -13 9 -23 20 -10 11 -16 20 -13 20 3 0 13 -9 23 -20z m-2545
-10 c-13 -11 -19 -20 -15 -20 4 0 -2 -9 -14 -19 -13 -11 -20 -24 -17 -30 4 -5
-3 -16 -14 -24 -11 -7 -17 -16 -14 -19 3 -3 -1 -9 -8 -14 -7 -4 -10 -4 -6 1 4
4 2 15 -5 23 -9 13 -9 14 1 8 6 -4 12 -2 12 3 0 6 3 10 8 10 16 -3 23 2 17 11
-4 7 -14 7 -28 0 -20 -9 -20 -9 -4 2 33 23 60 48 52 48 -4 0 2 9 15 20 13 11
28 20 33 20 6 0 0 -9 -13 -20z m1895 1 c3 -5 2 -12 -3 -15 -5 -3 -9 1 -9 9 0
17 3 19 12 6z m-180 -31 c-5 -8 -16 -8 -54 -1 -2 1 2 8 9 16 9 11 17 12 31 4
11 -5 17 -14 14 -19z m-1665 16 c0 -2 -9 -6 -20 -9 -11 -3 -20 -1 -20 4 0 5 9
9 20 9 11 0 20 -2 20 -4z m3340 -20 c0 -32 -54 -86 -86 -86 -26 0 -59 41 -51
62 4 8 6 7 6 -4 1 -20 30 -38 60 -38 13 0 18 5 15 13 -2 7 4 22 16 32 11 10
20 24 20 32 0 7 5 13 10 13 6 0 10 -11 10 -24z m-2610 -16 c0 -11 -4 -20 -9
-20 -5 0 -7 9 -4 20 3 11 7 20 9 20 2 0 4 -9 4 -20z m1046 -2 c4 -7 3 -8 -4
-4 -13 8 -16 -6 -5 -18 4 -4 15 3 25 16 10 13 18 18 18 13 0 -6 -10 -21 -23
-35 -12 -14 -28 -36 -35 -50 l-12 -25 7 25 c4 14 8 37 9 53 2 42 6 47 20 25z
m-1168 -16 c9 9 12 9 12 0 0 -7 -5 -12 -11 -12 -6 0 -8 -9 -4 -20 4 -11 2 -20
-4 -20 -6 0 -11 6 -11 14 0 8 -4 17 -9 20 -5 4 -4 -10 1 -29 6 -19 15 -32 20
-29 4 3 8 -7 8 -21 0 -15 5 -36 11 -48 10 -21 10 -21 -5 -3 -9 11 -16 25 -16
31 0 13 -34 80 -51 101 -10 12 -9 13 6 7 15 -5 17 -3 11 12 -6 18 -6 18 12 2
14 -13 21 -14 30 -5z m181 -9 c9 -6 -23 -33 -40 -33 -30 0 -32 -19 -2 -26 15
-4 39 -18 51 -32 20 -20 22 -31 17 -61 -4 -20 -11 -41 -17 -48 -5 -7 -8 -22
-5 -35 4 -20 4 -20 6 5 0 15 5 27 11 27 5 0 7 -8 4 -17 -4 -11 5 -5 21 12 20
23 25 25 21 10 -6 -20 -6 -20 9 -1 8 11 15 16 15 10 0 -12 -32 -63 -56 -89
-11 -11 -28 -36 -38 -55 -11 -19 -28 -46 -39 -60 l-19 -25 7 24 c5 16 4 21 -4
17 -6 -4 -11 -17 -11 -30 0 -27 -18 -46 -43 -46 -10 0 -15 -5 -12 -10 4 -6 11
-8 16 -5 17 11 9 0 -21 -29 -29 -27 -39 -17 -12 12 10 11 10 17 1 29 -7 8 -8
13 -3 12 19 -3 47 1 41 7 -8 9 43 75 53 69 4 -3 15 6 23 19 12 18 13 26 4 35
-9 9 -7 10 8 5 18 -7 18 -6 6 9 -7 9 -17 15 -21 12 -12 -7 -30 52 -23 73 3 9
15 29 25 44 18 26 18 27 -6 55 -13 15 -28 24 -32 20 -5 -4 -2 -12 6 -17 8 -6
11 -10 5 -10 -5 1 -19 7 -29 15 -17 13 -18 15 -3 15 27 0 20 17 -10 25 l-28 7
35 18 c19 11 43 19 53 20 18 0 25 30 7 30 -5 0 -10 -5 -10 -12 0 -6 -2 -9 -5
-6 -3 3 -3 13 1 22 5 14 9 14 23 4 9 -7 18 -14 20 -15z m801 11 c0 -8 -19 -13
-24 -6 -3 5 1 9 9 9 8 0 15 -2 15 -3z m-2219 -41 c13 -16 12 -17 -3 -4 -17 13
-22 21 -14 21 2 0 10 -8 17 -17z m2178 3 c11 -14 6 -15 -27 -7 -4 1 8 21 12
21 2 0 9 -6 15 -14z m38 -1 c0 -8 -4 -12 -9 -9 -5 3 -6 10 -3 15 9 13 12 11
12 -6z m1562 -22 c-25 -42 -166 -265 -208 -328 -35 -54 -231 -255 -272 -279
l-32 -19 19 34 c11 18 57 74 104 123 121 129 169 187 245 301 61 89 152 205
163 205 2 0 -7 -17 -19 -37z m-2489 -7 c0 -8 -4 -17 -8 -20 -4 -2 -8 4 -8 15
0 10 4 19 8 19 4 0 8 -6 8 -14z m820 5 c0 -5 -7 -12 -16 -15 -14 -5 -15 -4 -4
9 14 17 20 19 20 6z m180 -1 c9 -6 17 -5 23 3 6 8 7 8 4 -3 -2 -8 -15 -15 -30
-15 -29 -1 -73 -37 -83 -67 -3 -11 3 -34 15 -54 28 -47 27 -76 -5 -95 -24 -15
-25 -17 -9 -32 9 -10 13 -17 9 -17 -5 0 -19 12 -31 27 -16 19 -21 33 -16 47
11 31 6 108 -7 116 -26 16 58 100 100 100 8 0 22 -4 30 -10z m-726 -38 c-8 -2
-12 -7 -9 -12 3 -5 0 -12 -6 -16 -8 -4 -9 -3 -5 4 9 15 1 15 -27 0 -19 -10
-20 -9 -9 4 10 13 10 17 1 20 -7 2 -10 11 -6 21 6 16 9 16 41 -1 19 -10 28
-18 20 -20z m1675 24 c9 -11 9 -16 -1 -22 -7 -4 -10 -4 -6 1 4 4 3 14 -3 22
-6 7 -9 13 -6 13 2 0 10 -6 16 -14z m-2793 -28 c-9 -12 -16 -19 -16 -15 0 11
24 47 28 42 2 -2 -3 -14 -12 -27z m1678 17 c-10 -8 -23 -15 -28 -15 -6 0 -1 7
10 15 10 8 23 15 28 15 6 0 1 -7 -10 -15z m-1969 -180 c51 -77 131 -180 176
-229 74 -81 126 -163 112 -176 -11 -11 -176 178 -251 289 -76 111 -196 334
-152 281 12 -14 63 -88 115 -165z m2119 164 c-3 -6 -1 -14 5 -18 7 -4 -2 -8
-18 -8 l-30 0 21 19 c24 20 32 23 22 7z m83 -11 c-3 -8 -6 -5 -6 6 -1 11 2 17
5 13 3 -3 4 -12 1 -19z m-232 2 c-3 -5 -12 -10 -18 -10 -7 0 -6 4 3 10 19 12
23 12 15 0z m209 -6 c3 -8 2 -12 -4 -9 -6 3 -10 10 -10 16 0 14 7 11 14 -7z
m921 6 c-3 -5 -2 -10 2 -10 5 0 9 -10 10 -22 2 -22 1 -22 -12 2 -12 23 -12 40
1 40 3 0 2 -4 -1 -10z m205 0 c0 -5 -5 -10 -11 -10 -5 0 -7 5 -4 10 3 6 8 10
11 10 2 0 4 -4 4 -10z m-3225 -20 c-3 -5 -1 -10 6 -10 7 0 10 -3 6 -6 -9 -9
-28 6 -22 17 4 5 8 9 11 9 3 0 2 -4 -1 -10z m1900 -12 c-1 -13 -3 -27 -4 -31
-1 -11 -21 2 -21 14 0 6 5 7 10 4 6 -3 10 -1 10 4 0 6 -6 11 -12 11 -9 0 -8 4
2 10 8 5 16 10 16 10 1 0 0 -10 -1 -22z m-666 -32 c-6 -21 -13 -36 -16 -33 -3
3 0 22 7 42 16 47 23 40 9 -9z m631 34 c0 -5 -8 -10 -17 -10 -15 0 -16 2 -3
10 19 12 20 12 20 0z m1374 -5 c-4 -8 -11 -12 -16 -9 -6 4 -5 10 3 15 19 12
19 11 13 -6z m-1929 -7 c4 -3 2 -9 -3 -12 -5 -3 -15 1 -21 8 -10 11 -9 14 3
12 9 -1 18 -5 21 -8z m792 -10 c-3 -8 -6 -5 -6 6 -1 11 2 17 5 13 3 -3 4 -12
1 -19z m-821 -10 c12 -14 13 -18 3 -10 -9 6 -19 9 -22 5 -4 -3 -7 1 -7 10 0
22 3 21 26 -5z m-146 -5 c0 -5 -8 -17 -17 -28 -14 -18 -15 -18 -9 -2 3 10 6
23 6 28 0 5 5 9 10 9 6 0 10 -3 10 -7z m798 -54 c3 -12 2 -12 -6 0 -6 8 -15
10 -22 6 -9 -5 -11 -4 -6 4 10 15 28 10 34 -10z m102 0 c0 -11 -4 -18 -10 -14
-5 3 -7 12 -3 20 7 21 13 19 13 -6z m1240 -32 c0 -5 -9 2 -20 16 -11 14 -20
29 -20 33 0 4 9 -3 20 -16 11 -13 20 -27 20 -33z m-2230 -7 c0 -11 -4 -20 -10
-20 -5 0 -10 9 -10 20 0 11 5 20 10 20 6 0 10 -9 10 -20z m1540 11 c0 -17 -30
-40 -45 -35 -21 8 -7 33 16 27 10 -3 19 0 19 6 0 6 2 11 5 11 3 0 5 -4 5 -9z
m-503 -23 c-3 -8 -6 -5 -6 6 -1 11 2 17 5 13 3 -3 4 -12 1 -19z m-1040 -40
c-3 -8 -6 -5 -6 6 -1 11 2 17 5 13 3 -3 4 -12 1 -19z m2114 -1 c-10 -9 -11 -8
-5 6 3 10 9 15 12 12 3 -3 0 -11 -7 -18z m106 -9 c-3 -8 -6 -5 -6 6 -1 11 2
17 5 13 3 -3 4 -12 1 -19z m-3242 -8 c3 -5 1 -10 -4 -10 -6 0 -11 5 -11 10 0
6 2 10 4 10 3 0 8 -4 11 -10z m1125 -6 c0 -8 -5 -12 -10 -9 -6 4 -8 11 -5 16
9 14 15 11 15 -7z m-1050 -15 c0 -6 -4 -7 -10 -4 -5 3 -10 11 -10 16 0 6 5 7
10 4 6 -3 10 -11 10 -16z m1935 12 c3 -5 1 -12 -5 -16 -13 -8 -13 -25 1 -25 5
0 8 4 5 8 -3 5 1 9 7 9 7 0 13 -11 13 -23 0 -18 -3 -21 -17 -13 -23 12 -50 50
-43 61 7 11 31 10 39 -1z m1194 -35 c8 -10 8 -16 -3 -25 -10 -8 -16 -9 -21 -1
-4 6 -3 10 2 9 20 -3 25 2 13 16 -7 8 -10 15 -7 15 2 0 10 -6 16 -14z m-2187
-48 c-6 -6 -8 -1 -7 14 3 32 7 36 12 14 3 -10 1 -22 -5 -28z m-958 3 c-2 -3
-12 3 -22 13 -16 17 -16 18 5 5 12 -7 20 -15 17 -18z m3090 -40 c3 -5 -2 -15
-12 -22 -15 -12 -16 -12 -5 2 7 9 10 19 6 22 -3 4 -4 7 0 7 3 0 8 -4 11 -9z
m-45 -29 c7 -13 6 -19 -2 -19 -7 0 -13 9 -13 19 0 10 1 18 3 18 1 0 7 -8 12
-18z"/>
<path d="M2223 4005 c0 -8 4 -12 9 -9 5 3 6 10 3 15 -9 13 -12 11 -12 -6z"/>
<path d="M2316 3734 c-9 -8 -16 -21 -16 -27 0 -8 4 -7 12 1 15 15 63 16 89 2
28 -16 26 -68 -3 -79 -26 -9 -45 -5 -71 17 -9 8 -20 12 -25 8 -4 -4 6 -19 22
-33 35 -29 69 -25 104 13 29 33 28 50 -7 85 -33 33 -80 39 -105 13z"/>
<path d="M2788 3643 c7 -3 16 -2 19 1 4 3 -2 6 -13 5 -11 0 -14 -3 -6 -6z"/>
<path d="M3737 3453 c-4 -3 -7 -11 -7 -17 0 -6 5 -5 12 2 6 6 9 14 7 17 -3 3
-9 2 -12 -2z"/>
<path d="M2192 2800 c-18 -29 -15 -38 4 -12 9 13 14 25 12 27 -2 2 -9 -5 -16
-15z"/>
<path d="M2836 3022 c-3 -4 4 -9 15 -9 23 -2 25 3 4 10 -8 4 -16 3 -19 -1z"/>
<path d="M2016 2704 c-9 -24 -2 -26 12 -4 7 11 8 20 3 20 -5 0 -12 -7 -15 -16z"/>
<path d="M2090 2890 c0 -6 7 -13 15 -17 24 -9 27 1 5 15 -13 8 -20 8 -20 2z"/>
<path d="M450 2866 c0 -11 9 -30 21 -42 11 -12 61 -100 110 -195 88 -169 90
-175 83 -224 -6 -46 -5 -49 11 -35 16 14 17 10 11 -55 -3 -39 -9 -94 -12 -123
-4 -39 -2 -59 10 -77 17 -26 103 -75 131 -75 10 0 29 -27 51 -74 36 -78 41
-101 24 -111 -5 -3 -10 -18 -10 -32 0 -15 -7 -35 -16 -44 -14 -16 -15 -23 -4
-49 12 -28 11 -32 -14 -51 -30 -23 -33 -41 -11 -63 10 -9 13 -24 10 -39 -4
-15 -1 -28 9 -36 9 -8 16 -19 16 -26 0 -7 14 -18 30 -25 17 -7 30 -19 30 -26
0 -8 11 -19 25 -24 26 -10 33 -38 14 -57 -7 -7 -8 -17 -1 -28 6 -11 6 -32 -1
-57 -10 -39 -9 -41 27 -74 41 -38 41 -39 20 -89 -12 -30 -13 -44 -5 -62 17
-37 13 -54 -19 -103 -34 -51 -37 -80 -14 -116 23 -34 55 -49 160 -73 119 -27
251 -38 614 -52 358 -13 1571 -6 1785 11 279 22 412 51 467 102 26 24 29 32
23 60 -4 18 -21 56 -36 84 -16 28 -27 53 -24 56 18 17 21 68 8 107 -14 40 -13
43 12 73 28 33 28 38 9 170 -4 29 -2 39 10 44 9 3 16 10 16 16 0 5 23 32 51
60 41 41 49 55 45 74 -4 16 -2 26 8 30 27 10 26 34 -4 65 -24 26 -28 35 -19
51 8 15 7 24 -5 37 -9 10 -16 33 -16 51 0 18 -7 41 -16 51 -15 16 -14 24 8 91
24 72 25 73 89 109 38 22 72 49 83 68 17 29 18 39 7 101 -14 84 -14 125 -1
148 5 9 24 55 42 102 18 47 67 156 110 243 65 133 74 157 58 157 -10 0 -32
-19 -50 -42 -45 -62 -150 -278 -184 -381 -19 -57 -32 -83 -37 -75 -5 7 -9 21
-9 31 0 30 -19 58 -34 50 -19 -11 -183 -190 -217 -237 -35 -47 -36 -69 -7
-159 26 -81 42 -93 98 -73 22 7 40 12 40 11 0 -1 -11 -28 -25 -59 -29 -65 -15
-64 -170 -14 -118 38 -142 43 -368 78 -376 59 -455 68 -717 81 -386 18 -801
-1 -1115 -51 -66 -10 -147 -22 -180 -25 -33 -4 -116 -18 -184 -31 -149 -29
-163 -30 -133 -9 27 20 141 42 261 51 50 4 94 11 97 16 7 10 -112 3 -186 -12
-25 -5 -65 -12 -90 -16 -49 -7 -95 -27 -107 -47 -8 -12 -122 -60 -175 -72 -24
-6 -28 -2 -47 40 -12 26 -21 50 -21 52 0 3 18 2 40 -2 39 -7 41 -6 55 28 8 20
18 60 21 90 6 50 4 59 -24 98 -48 70 -191 239 -202 239 -5 0 -16 -12 -23 -27
l-15 -27 -7 44 c-11 64 -29 103 -108 225 -39 60 -85 135 -102 165 -25 46 -35
55 -57 55 -21 1 -28 -4 -28 -19z m279 -491 c0 -27 -6 -61 -14 -75 l-14 -25 -1
35 c0 19 3 59 7 88 7 65 23 50 22 -23z m203 -115 c59 -73 59 -75 34 -78 -28
-4 -66 13 -66 30 0 15 -87 136 -107 146 -12 7 -14 17 -8 38 l7 29 40 -45 c23
-25 68 -79 100 -120z m3164 87 c-3 -12 -24 -44 -46 -71 -29 -35 -40 -57 -38
-75 3 -24 0 -26 -44 -29 -38 -2 -48 0 -48 12 0 21 173 212 178 197 2 -7 1 -22
-2 -34z m124 -1 c0 -13 2 -39 5 -57 5 -32 4 -31 -14 11 -24 55 -26 70 -6 70 9
0 15 -9 15 -24z m-3454 -71 c16 -8 39 -15 50 -15 22 0 79 -38 70 -47 -2 -2
-19 3 -36 12 -22 11 -50 16 -90 13 -59 -3 -65 3 -37 40 12 15 9 15 43 -3z
m3334 2 c0 -9 16 -13 52 -12 28 0 53 -4 54 -10 2 -6 -18 -10 -49 -11 -28 0
-67 -8 -85 -18 -45 -23 -51 -14 -18 29 28 36 46 45 46 22z m123 -97 c2 -9 -2
-28 -10 -41 l-14 -24 6 28 c4 19 2 26 -5 22 -5 -3 -10 2 -10 13 0 23 27 25 33
2z m-3423 -32 l20 -33 -25 -23 c-28 -26 -51 -20 -79 20 -18 25 -22 63 -6 53 5
-3 18 -1 27 4 29 17 42 13 63 -21z m3386 -36 c-3 -16 -27 -33 -38 -26 -5 3 -6
10 -2 15 3 5 10 6 16 3 7 -5 9 2 4 20 -6 23 -5 26 7 14 8 -7 14 -19 13 -26z
m-1171 -62 c412 -33 696 -84 919 -164 110 -39 127 -53 107 -84 -6 -11 -36 -4
-142 31 -153 52 -257 75 -484 111 -237 37 -368 46 -815 53 -408 6 -489 3 -830
-33 -290 -30 -504 -74 -753 -154 -52 -16 -97 -30 -101 -30 -15 0 -4 32 22 59
76 81 556 173 1167 224 22 2 182 4 355 5 235 1 376 -3 555 -18z m-240 -70
c378 -14 504 -25 705 -59 193 -34 333 -68 440 -108 84 -30 88 -42 6 -13 -150
51 -456 106 -679 120 -89 6 -178 13 -197 15 -19 2 -138 9 -265 16 -488 25
-1039 -11 -1480 -97 -103 -21 -292 -73 -327 -91 -16 -7 -40 -18 -55 -23 l-28
-10 25 19 c45 35 326 120 517 155 188 35 463 63 783 79 132 7 303 6 555 -3z
m-19 -50 c89 -5 201 -12 249 -16 86 -7 88 -7 67 -25 -12 -9 -22 -27 -22 -38 0
-22 -9 -25 -60 -15 -20 4 -27 10 -19 14 7 5 9 16 5 26 -6 16 -8 16 -16 4 -7
-10 -10 -11 -10 -2 0 6 -4 12 -10 12 -14 0 -12 -37 3 -43 6 -3 -15 -6 -48 -6
-60 -1 -61 -1 -60 26 0 31 -26 43 -50 23 -11 -9 -12 -17 -4 -31 9 -18 5 -19
-89 -19 -96 0 -99 1 -98 23 1 13 -5 22 -14 22 -9 0 -14 -8 -13 -20 2 -26 -13
-35 -64 -35 -46 0 -48 2 -33 29 7 14 5 23 -10 36 -19 17 -21 17 -40 0 -14 -13
-17 -22 -10 -29 5 -5 10 -16 10 -23 0 -10 -32 -13 -155 -11 -85 2 -155 5 -155
9 0 3 5 10 10 15 13 13 2 44 -16 44 -21 0 -38 -38 -23 -56 12 -15 -1 -16 -161
-20 -30 0 -71 -4 -90 -7 -19 -3 -93 -11 -165 -18 -71 -6 -154 -18 -184 -25
-30 -8 -55 -13 -56 -11 -1 1 -5 21 -8 44 -4 34 -2 43 11 47 53 16 565 72 722
79 155 7 458 6 606 -3z m771 -63 c73 -13 135 -25 137 -28 3 -2 1 -20 -3 -39
-5 -28 -12 -36 -31 -38 -29 -3 -63 16 -42 25 14 5 17 43 3 43 -5 0 -12 -6 -15
-12 -4 -9 -10 -6 -22 10 -19 25 -54 30 -54 7 0 -9 10 -20 23 -24 20 -8 20 -10
4 -16 -9 -4 -23 -2 -31 4 -7 6 -21 8 -30 5 -10 -4 -67 -1 -129 5 -146 16 -163
19 -149 33 13 13 5 38 -13 38 -18 0 -26 -25 -12 -39 8 -8 -2 -11 -38 -11 -43
0 -47 1 -30 14 12 9 16 20 12 36 l-6 23 147 -6 c82 -4 205 -17 279 -30z
m-2140 -53 c6 -14 10 -31 7 -38 -2 -6 -42 -20 -87 -29 -102 -21 -100 -21 -85
3 9 15 10 22 1 31 -18 18 -36 0 -29 -32 4 -23 2 -29 -12 -29 -9 0 -28 -3 -42
-7 -25 -6 -25 -6 -6 15 23 26 15 53 -13 45 -14 -4 -21 -15 -23 -42 -2 -28 -8
-37 -24 -39 -18 -3 -21 1 -17 22 6 30 -16 36 -37 11 -9 -11 -10 -18 -1 -29 9
-11 5 -15 -24 -20 -19 -4 -35 -11 -35 -17 0 -5 -16 3 -35 18 -36 29 -40 42 -6
24 16 -9 19 -9 15 2 -8 22 64 54 211 91 224 56 225 56 242 20z m2427 -5 c50
-12 96 -25 101 -29 6 -4 38 -16 73 -25 34 -10 65 -21 67 -25 3 -5 -4 -6 -15
-3 -24 6 -39 -22 -21 -40 10 -9 16 -7 27 8 15 20 16 20 40 -8 13 -15 24 -33
24 -40 0 -7 -9 1 -19 17 -19 28 -20 28 -32 9 -11 -18 -15 -19 -38 -7 -14 8
-42 16 -61 19 -35 6 -142 35 -149 41 -2 2 4 10 12 19 9 8 14 22 11 29 -7 19
-45 28 -61 14 -11 -9 -11 -15 3 -36 16 -24 16 -25 -7 -19 -13 4 -32 7 -41 7
-10 0 -18 7 -18 15 0 8 -4 15 -10 15 -5 0 -10 14 -10 30 0 37 3 37 124 9z
m-1354 -8 c107 5 531 3 670 -4 157 -7 378 -42 630 -98 219 -48 295 -73 321
-106 11 -13 10 -17 -5 -29 -15 -11 -22 -11 -40 1 -11 7 -84 34 -161 59 -196
64 -342 86 -817 121 -382 29 -1118 14 -1513 -31 -244 -28 -529 -91 -603 -135
-40 -23 -62 -24 -62 -3 0 19 101 65 195 88 372 92 869 151 1160 139 77 -4 178
-5 225 -2z m1570 -31 c8 -5 11 -10 5 -10 -5 0 -17 5 -25 10 -8 5 -10 10 -5 10
6 0 17 -5 25 -10z m-955 -49 c256 -17 370 -30 529 -62 277 -55 470 -118 444
-145 -3 -3 -28 6 -55 19 -104 52 -280 93 -571 132 -277 37 -466 47 -897 49
-345 1 -576 -8 -980 -38 -79 -6 -395 -70 -466 -94 -30 -11 -80 -31 -111 -46
-63 -30 -76 -32 -57 -10 43 52 276 116 581 159 59 8 232 22 385 30 153 8 303
17 333 19 104 7 705 -2 865 -13z m-65 -36 c135 -9 270 -19 300 -24 l55 -9 -55
0 c-30 -1 -102 3 -160 8 -58 5 -235 14 -395 20 -357 12 -684 1 -1169 -41 -78
-7 -122 -7 -128 -1 -13 13 24 17 377 37 154 9 289 18 300 19 66 10 667 3 875
-9z m-2122 -44 c3 -16 -1 -22 -10 -19 -7 3 -15 15 -16 27 -3 16 1 22 10 19 7
-3 15 -15 16 -27z m2092 -6 c118 -8 278 -22 355 -30 77 -9 184 -20 237 -25 61
-6 112 -17 136 -29 21 -10 62 -24 92 -29 118 -22 171 -61 155 -112 -8 -25 -11
-25 -91 5 -112 42 -171 54 -456 89 -239 30 -311 35 -583 40 -298 5 -311 6
-324 26 -18 26 -30 25 -71 -5 l-34 -25 -255 0 c-367 0 -634 -29 -901 -98 -209
-53 -219 -53 -220 5 0 28 25 41 150 82 283 91 1226 147 1810 106z m-1910 -103
c0 -5 -17 -16 -37 -25 -21 -9 -48 -24 -60 -33 -22 -16 -23 -15 -23 4 0 25 15
37 60 50 45 13 60 14 60 4z m1451 -31 c33 -33 36 -60 13 -101 l-17 -27 -38 40
c-48 49 -59 85 -34 104 28 19 43 16 76 -16z m1440 17 c31 -9 39 -16 39 -35 0
-29 -7 -29 -34 0 -12 12 -31 27 -42 34 -25 15 -11 16 37 1z m-2002 -30 c33
-34 36 -44 22 -81 -13 -33 -36 -41 -39 -14 -1 17 1 19 8 7 9 -13 10 -13 11 0
3 30 -4 45 -32 74 -16 16 -29 33 -29 38 0 18 29 6 59 -24z m417 16 c-18 -47
-17 -66 8 -120 15 -31 24 -59 22 -62 -3 -2 -51 1 -109 8 -152 18 -388 -4 -462
-44 l-40 -21 37 -3 c21 -2 79 5 130 16 84 17 139 18 558 17 406 -1 475 -3 547
-19 44 -9 96 -16 115 -14 l33 4 -50 23 c-87 42 -319 60 -511 41 -69 -6 -127
-10 -129 -8 -3 2 7 25 20 51 29 54 32 93 9 126 l-17 24 242 -5 c133 -3 244 -7
246 -10 3 -3 -4 -13 -15 -23 -20 -18 -26 -58 -14 -102 3 -12 22 -29 41 -38 32
-15 39 -16 73 -2 35 14 39 13 57 -5 14 -14 47 -23 124 -33 57 -7 142 -23 189
-34 47 -12 101 -21 120 -21 57 0 231 -47 290 -78 42 -22 55 -34 55 -52 0 -43
-26 -47 -116 -17 -270 92 -962 140 -1654 117 -435 -15 -720 -48 -987 -115
-113 -29 -136 -31 -145 -9 -10 26 15 67 37 61 13 -3 24 1 30 12 13 25 211 79
290 79 14 -1 61 7 105 16 44 9 132 26 195 36 82 14 119 25 130 38 13 15 18 16
40 5 14 -7 41 -13 61 -13 28 0 39 5 49 24 7 14 18 22 25 19 17 -6 9 73 -11
104 -8 12 -14 24 -14 27 0 8 71 13 239 14 146 2 162 0 157 -14z m-556 -38 c-6
-20 -9 -54 -5 -79 l7 -43 -149 -18 c-81 -11 -163 -21 -182 -24 -30 -4 -33 -2
-26 14 20 48 18 83 -9 107 l-25 24 119 23 c106 20 269 40 278 34 2 -2 -1 -19
-8 -38z m103 -13 c10 -22 8 -28 -16 -48 -17 -15 -22 -25 -14 -28 7 -4 8 -6 1
-6 -6 -1 -23 10 -39 24 -21 21 -26 31 -20 53 13 57 63 60 88 5z m1216 21 c21
-27 26 -50 15 -78 -9 -24 -24 -19 -24 9 0 22 -3 24 -29 19 -24 -5 -30 -2 -36
17 -6 17 -2 27 15 41 29 24 35 23 59 -8z m166 16 c50 -6 120 -18 158 -26 69
-17 77 -26 57 -64 -8 -14 -6 -29 4 -55 11 -26 12 -35 3 -35 -43 -1 -334 35
-343 42 -7 5 -10 26 -6 53 3 31 0 52 -12 70 -16 25 -16 25 16 25 18 0 74 -5
123 -10z m-262 -20 c-3 -11 -9 -20 -14 -20 -5 0 -9 -8 -10 -17 0 -11 -2 -13
-6 -5 -3 7 2 24 11 37 20 30 26 32 19 5z m-1683 -38 c0 -4 -11 -24 -25 -44
-29 -43 -32 -73 -8 -87 26 -14 13 -22 -89 -46 -82 -20 -95 -21 -110 -8 -14 13
-17 12 -23 -6 -10 -33 -25 -24 -25 15 0 36 -15 73 -34 86 -6 5 -1 8 12 8 13 0
35 9 50 20 15 10 70 31 122 44 101 27 130 31 130 18z m70 -22 c27 -23 31 -33
22 -42 -9 -9 -12 -8 -13 8 0 11 -3 14 -6 6 -4 -10 -11 -8 -29 9 -23 21 -32 49
-16 49 4 -1 23 -14 42 -30z m980 26 c0 -3 -4 -8 -10 -11 -5 -3 -10 -1 -10 4 0
6 5 11 10 11 6 0 10 -2 10 -4z m1210 -8 c-1 -26 -26 -47 -49 -41 l-22 6 22 23
c24 26 49 32 49 12z m193 -27 c36 -17 71 -31 80 -31 20 0 29 -27 17 -50 -6
-10 -10 -34 -10 -54 0 -39 -17 -57 -34 -35 -6 8 -24 15 -41 15 -43 2 -194 48
-169 52 24 3 51 51 35 61 -6 4 -17 24 -26 45 l-16 39 50 -5 c28 -3 79 -19 114
-37z m-171 -83 c-31 -33 -38 -34 -45 -8 -3 11 -2 20 2 20 4 0 13 21 20 47 l12
48 18 -40 18 -40 -25 -27z m-1200 34 c-4 -11 -6 -11 -13 -1 -4 7 -6 16 -3 20
2 4 0 10 -6 14 -5 3 -10 11 -10 17 0 5 8 0 19 -13 10 -13 16 -29 13 -37z m23
48 c3 -6 -1 -7 -9 -4 -18 7 -21 14 -7 14 6 0 13 -4 16 -10z m-1069 -61 c6 -8
8 -24 5 -36 -6 -22 -6 -22 -40 6 l-33 27 17 35 18 34 11 -26 c6 -14 16 -32 22
-40z m1081 27 c-3 -8 -1 -17 6 -20 7 -2 4 -5 -5 -5 -10 -1 -18 1 -18 3 0 10
13 36 17 36 3 0 3 -6 0 -14z m1493 -61 c0 -8 -2 -15 -4 -15 -2 0 -11 -3 -20
-6 -10 -4 -16 -1 -16 9 0 14 13 24 33 26 4 1 7 -6 7 -14z m-2933 -10 c7 -20
-2 -29 -21 -22 -9 4 -13 13 -10 22 8 19 23 19 31 0z m1868 -95 c521 -23 923
-97 1018 -188 36 -34 64 -126 46 -148 -11 -13 -16 -11 -43 15 -106 102 -402
137 -1256 148 -785 9 -1284 -24 -1520 -104 -43 -14 -58 -25 -71 -51 -14 -27
-18 -30 -29 -17 -20 24 -6 39 62 73 75 36 187 65 343 86 237 33 429 40 1050
40 513 1 654 -2 815 -17 257 -23 505 -69 582 -107 32 -16 56 -25 53 -19 -29
46 -268 104 -560 134 -479 50 -1620 38 -1970 -21 -213 -35 -298 -61 -362 -110
-40 -31 -43 -30 -43 6 0 74 75 129 232 170 120 32 361 72 543 91 245 25 770
34 1110 19z"/>
<path d="M1946 1885 c-19 -14 -19 -15 -1 -35 10 -11 22 -20 26 -20 14 0 29 37
23 54 -8 20 -23 20 -48 1z"/>
<path d="M2193 1884 c-7 -20 11 -38 32 -30 13 4 14 10 5 26 -13 24 -28 26 -37
4z"/>
<path d="M2286 1873 c-8 -19 8 -38 23 -29 16 10 13 46 -3 46 -8 0 -17 -8 -20
-17z"/>
<path d="M2670 1870 c0 -11 7 -20 15 -20 8 0 15 9 15 20 0 11 -7 20 -15 20 -8
0 -15 -9 -15 -20z"/>
<path d="M1741 1866 c-9 -11 -8 -18 4 -30 9 -9 20 -16 24 -16 13 0 31 24 31
42 0 22 -42 25 -59 4z"/>
<path d="M1612 1858 c-16 -16 -15 -33 1 -47 11 -8 18 -6 32 9 30 33 -2 69 -33
38z"/>
<path d="M1487 1848 c-20 -11 -23 -44 -4 -51 19 -7 47 12 47 32 0 23 -20 32
-43 19z"/>
<path d="M3260 1865 c-15 -17 -5 -35 20 -35 22 0 33 23 17 39 -15 15 -22 14
-37 -4z"/>
<path d="M3370 1846 c0 -35 18 -42 44 -17 18 19 19 23 6 31 -28 18 -50 12 -50
-14z"/>
<path d="M1300 1805 c-15 -18 -6 -45 15 -45 9 0 15 9 15 24 0 31 -14 40 -30
21z"/>
<path d="M966 1723 c-13 -13 -6 -42 9 -37 16 7 20 30 6 38 -4 3 -11 3 -15 -1z"/>
<path d="M3865 1760 c-9 -15 3 -30 25 -30 15 0 30 18 30 36 0 9 -49 3 -55 -6z"/>
<path d="M3938 1736 c-13 -10 -15 -15 -6 -24 20 -20 38 -13 38 13 0 28 -7 30
-32 11z"/>
<path d="M2165 1467 c-37 -28 3 -88 48 -72 22 9 27 40 10 64 -16 24 -32 26
-58 8z m35 -32 c0 -8 -4 -15 -10 -15 -5 0 -10 7 -10 15 0 8 5 15 10 15 6 0 10
-7 10 -15z"/>
<path d="M2755 1460 c-37 -41 24 -97 63 -58 18 18 14 56 -7 68 -27 14 -35 13
-56 -10z m45 -25 c0 -8 -4 -15 -9 -15 -13 0 -22 16 -14 24 11 11 23 6 23 -9z"/>
<path d="M3870 1134 c0 -9 7 -14 17 -12 25 5 28 28 4 28 -12 0 -21 -6 -21 -16z"/>
<path d="M1631 1431 c-17 -31 -3 -53 33 -49 27 3 31 7 31 33 0 25 -4 31 -27
33 -18 2 -30 -3 -37 -17z m49 -21 c0 -5 -7 -10 -15 -10 -8 0 -15 5 -15 10 0 6
7 10 15 10 8 0 15 -4 15 -10z"/>
<path d="M3370 1430 c-17 -32 -3 -62 27 -58 38 4 52 32 29 57 -24 26 -42 27
-56 1z m40 -30 c0 -5 -2 -10 -4 -10 -3 0 -8 5 -11 10 -3 6 -1 10 4 10 6 0 11
-4 11 -10z"/>
<path d="M1145 1341 c-21 -41 -6 -74 33 -69 52 6 56 88 4 96 -15 2 -25 -6 -37
-27z m49 -22 c-7 -11 -34 -12 -34 -1 0 14 11 21 26 15 8 -3 11 -9 8 -14z"/>
<path d="M3788 1359 c-22 -12 -23 -52 -2 -73 18 -19 20 -19 45 -6 21 12 25 41
9 71 -12 21 -26 23 -52 8z m32 -44 c0 -8 -4 -15 -9 -15 -13 0 -22 16 -14 24
11 11 23 6 23 -9z"/>
<path d="M3706 1031 c5 -5 20 -12 34 -15 24 -7 24 -6 6 8 -21 17 -57 23 -40 7z"/>
<path d="M1118 1008 c-7 -19 2 -38 18 -38 8 0 14 10 14 25 0 26 -24 35 -32 13z"/>
<path d="M3863 1004 c-8 -21 13 -42 28 -27 13 13 5 43 -11 43 -6 0 -13 -7 -17
-16z"/>
<path d="M2364 2688 c-22 -24 -63 -70 -90 -102 -27 -33 -66 -75 -86 -94 -22
-19 -38 -44 -38 -56 0 -14 45 -66 136 -156 l135 -135 70 75 c153 165 181 199
173 212 -17 28 -247 298 -253 298 -4 0 -25 -19 -47 -42z m54 -33 c17 -36 15
-53 -6 -59 -10 -4 -51 -43 -91 -87 -71 -80 -74 -88 -56 -131 5 -13 2 -15 -17
-11 -31 8 -68 42 -68 64 0 22 196 249 214 249 7 0 18 -11 24 -25z m172 -160
c13 -14 21 -25 18 -25 -2 0 -15 11 -28 25 -13 14 -21 25 -18 25 2 0 15 -11 28
-25z m-240 -10 l-23 -25 21 0 c12 0 22 -5 22 -10 0 -17 -29 -23 -45 -10 -12
10 -15 9 -15 -4 0 -9 -4 -16 -10 -16 -27 0 0 54 38 74 37 21 39 20 12 -9z
m-30 -110 c7 -9 8 -15 2 -15 -5 0 -12 7 -16 15 -3 8 -4 15 -2 15 2 0 9 -7 16
-15z"/>
<path d="M3448 2043 c12 -2 30 -2 40 0 9 3 -1 5 -23 4 -22 0 -30 -2 -17 -4z"/>
<path d="M3700 2016 c49 -27 65 -32 55 -16 -8 14 0 13 43 -6 75 -32 215 -83
206 -74 -18 16 -260 108 -304 114 l-45 7 45 -25z m47 -2 c-3 -3 -12 -4 -19 -1
-8 3 -5 6 6 6 11 1 17 -2 13 -5z"/>
<path d="M1064 1982 c-34 -15 -72 -35 -85 -44 -13 -10 12 -1 56 18 44 20 84
40 90 45 13 13 7 11 -61 -19z"/>
</g>
</svg>
